<svg xmlns="http://www.w3.org/2000/svg" xmlns:xlink="http://www.w3.org/1999/xlink" id="body_1" preserveAspectRatio="xMinYMin meet" viewBox="0 0 793 1121"><defs><clipPath id="1"><path id="" clip-rule="evenodd" d="M0 841L0 -0.9199829L0 -0.9199829L595.32 -0.9199829L595.32 -0.9199829L595.32 841L595.32 841L0 841z" /></clipPath></defs><g transform="matrix(1.333333 0 0 1.333333 0 0)"><g clip-path="url(#1)"><path id="12" transform="matrix(1 0 0 -1 0 841)" d="M225.6 807.6L369.72 807.6L369.72 807.6L369.72 809.7599L369.72 809.7599L225.6 809.7599z" stroke="none" fill="#000000" fill-rule="evenodd" /><path id="60" transform="matrix(1 0 0 -1 0 841)" d="M184.44 791.04L268.2 791.04L268.2 791.64L184.44 791.64z" stroke="none" fill="#0563C1" fill-rule="nonzero" /><path id="83" transform="matrix(1 0 0 -1 0 841)" d="M36 758.64L150.96 758.64L150.96 758.64L150.96 759.72L150.96 759.72L36 759.72z" stroke="none" fill="#000000" fill-rule="evenodd" /><path id="304" transform="matrix(1 0 0 -1 0 841)" d="M36 680.64L163.68 680.64L163.68 680.64L163.68 681.72L163.68 681.72L36 681.72z" stroke="none" fill="#000000" fill-rule="evenodd" /><path id="418" transform="matrix(1 0 0 -1 0 841)" d="M36 618.24L63.48 618.24L63.48 618.24L63.48 619.32L63.48 619.32L36 619.32z" stroke="none" fill="#000000" fill-rule="evenodd" /><path id="539" transform="matrix(1 0 0 -1 0 841)" d="M36 556.08L131.64 556.08L131.64 556.08L131.64 557.16L131.64 557.16L36 557.16z" stroke="none" fill="#000000" fill-rule="evenodd" /><path id="1754" transform="matrix(1 0 0 -1 0 841)" d="M36 290.64L124.68 290.64L124.68 290.64L124.68 291.72L124.68 291.72L36 291.72z" stroke="none" fill="#000000" fill-rule="evenodd" /><path id="2543" transform="matrix(1 0 0 -1 0 841)" d="M36 134.64L206.88 134.64L206.88 134.64L206.88 135.72L206.88 135.72L36 135.72z" stroke="none" fill="#000000" fill-rule="evenodd" /><path id="2623" transform="matrix(1 0 0 -1 0 841)" d="M36 87.84L111.84 87.84L111.84 87.84L111.84 88.92L111.84 88.92L36 88.92z" stroke="none" fill="#000000" fill-rule="evenodd" /><path id="2840" transform="matrix(1 0 0 -1 0 841)" d="M36 25.44L77.4 25.44L77.4 25.44L77.4 26.52L77.4 26.52L36 26.52z" stroke="none" fill="#000000" fill-rule="evenodd" /></g></g></svg>